<svg id="Capa_1" enable-background="new 0 0 512.001 512.001" height="512" viewBox="0 0 512.001 512.001" width="512" xmlns="http://www.w3.org/2000/svg"><g><path d="m436.001 347.001h-360c-8.284 0-15 6.716-15 15v45c0 8.284 6.716 15 15 15h360c8.284 0 15-6.716 15-15v-45c0-8.284-6.716-15-15-15z"/><path d="m435.577 482.001h-359.576c-8.525 0-15.389 7.111-14.983 15.725.38 8.068 7.33 14.275 15.407 14.275h359.576c8.525 0 15.389-7.111 14.983-15.726-.38-8.067-7.33-14.274-15.407-14.274z"/><path d="m376.001 272.001h-45c-8.266 0-15-6.719-15-15 0-26.493 7.456-53.552 14.48-79.59 7.41-27.45 15.07-55.81 15.5-84.87.75-50.53-39.91-92.8-90.45-92.54-49.41.25-89.53 40.53-89.53 90 0 29.94 7.89 59.16 15.52 87.41 7.44 27.55 14.46 53.56 14.48 79.49.01 8.31-6.7 15.1-15 15.1h-45c-24.85 0-45 20.15-45 45h330c0-24.85-20.15-45-45-45z"/></g></svg>